<?xml version="1.0" standalone="no"?>
<!DOCTYPE svg PUBLIC "-//W3C//DTD SVG 20010904//EN"
 "http://www.w3.org/TR/2001/REC-SVG-20010904/DTD/svg10.dtd">
<svg version="1.0" xmlns="http://www.w3.org/2000/svg"
 width="720.000000pt" height="286.000000pt" viewBox="0 0 720.000000 286.000000"
 preserveAspectRatio="xMidYMid meet">

<g transform="translate(0.000000,286.000000) scale(0.100000,-0.100000)"
fill="#000000" stroke="none">
<path d="M5830 2136 c0 -25 -52 -54 -87 -49 -41 7 -69 -30 -54 -70 11 -29 10
-31 -151 -367 -41 -86 -83 -174 -93 -197 -14 -32 -24 -42 -46 -45 -27 -4 -34
5 -153 191 -96 152 -125 205 -128 236 -3 35 -6 40 -31 43 -38 5 -60 -15 -54
-47 6 -30 -23 -77 -53 -86 -14 -4 -20 -15 -20 -36 0 -38 -46 -129 -65 -129 -8
0 -18 -12 -21 -26 -9 -35 15 -59 51 -50 24 6 27 11 23 44 -5 42 24 119 54 140
10 7 18 20 18 29 0 8 8 28 17 44 34 57 49 44 184 -169 110 -174 125 -202 121
-233 l-4 -35 -161 -54 c-89 -30 -173 -54 -187 -53 -13 1 -34 -7 -47 -17 -13
-10 -71 -37 -129 -60 -87 -36 -110 -41 -125 -32 -44 28 -109 -4 -109 -53 0
-64 79 -89 123 -39 19 22 28 25 62 20 22 -3 128 -8 235 -12 151 -5 199 -10
212 -21 9 -8 25 -12 36 -9 13 4 88 -26 226 -93 190 -92 206 -102 206 -126 0
-32 41 -75 73 -75 27 0 66 33 68 58 3 45 -20 82 -53 82 -17 0 -18 23 -18 573
0 561 0 572 20 585 12 7 20 23 20 41 0 29 33 61 64 61 15 0 29 27 20 41 -9 15
-44 10 -44 -5z m-71 -80 c17 -20 2 -48 -23 -44 -24 3 -34 37 -14 49 18 12 24
11 37 -5z m-29 -636 c0 -308 -3 -560 -7 -559 -5 0 -70 98 -146 219 -128 203
-136 220 -126 244 9 18 9 33 2 49 -8 18 -2 39 36 117 25 53 72 150 103 215 31
66 73 155 93 198 21 42 39 77 41 77 2 0 4 -252 4 -560z m-635 415 c0 -28 -29
-25 -33 3 -3 19 0 23 15 20 10 -2 18 -12 18 -23z m-170 -293 c0 -18 -20 -15
-23 4 -3 10 1 15 10 12 7 -3 13 -10 13 -16z m503 -188 c2 -11 -4 -26 -12 -33
-31 -26 -71 14 -45 45 17 21 53 14 57 -12z m-12 -68 c1 0 55 -84 119 -186 65
-102 131 -204 146 -227 16 -23 26 -44 22 -46 -5 -3 -100 39 -212 94 -112 54
-206 99 -209 99 -3 0 -10 7 -16 16 -12 16 -46 18 -433 23 -62 0 -113 5 -113 9
0 10 217 97 240 97 8 0 22 5 30 10 8 6 89 36 180 67 132 45 173 56 205 51 22
-3 41 -6 41 -7z m-730 -221 c12 -50 -41 -75 -70 -33 -21 30 -4 58 34 58 23 0
31 -5 36 -25z m1098 -264 c33 -37 3 -80 -47 -67 -21 5 -27 12 -27 34 0 51 42
69 74 33z"/>
<path d="M1835 1226 c-105 -47 -148 -172 -95 -280 17 -35 35 -54 74 -76 182
-105 381 97 271 275 -52 83 -163 119 -250 81z m142 -76 c44 -26 66 -63 66
-111 0 -50 -26 -87 -77 -113 -50 -24 -99 -15 -143 29 -28 28 -33 40 -33 82 0
55 17 85 64 114 40 24 83 24 123 -1z"/>
<path d="M2867 1234 c-15 -16 -7 -53 14 -59 30 -10 58 19 43 43 -12 18 -45 28
-57 16z"/>
<path d="M3592 1231 c-18 -11 -12 -41 10 -55 14 -8 22 -7 35 7 29 29 -10 71
-45 48z"/>
<path d="M3918 1223 c-36 -23 -61 -76 -53 -112 9 -40 40 -66 119 -98 38 -15
74 -36 80 -45 18 -29 -5 -53 -52 -56 -22 -2 -46 -10 -53 -19 -11 -13 -10 -18
10 -34 42 -35 118 -20 158 31 7 8 13 35 13 58 0 56 -34 90 -122 124 -33 13
-66 31 -72 41 -31 48 62 77 117 36 34 -25 60 -17 65 18 8 55 -148 96 -210 56z"/>
<path d="M1363 1218 c-26 -33 -154 -323 -151 -342 2 -15 10 -21 28 -21 19 0
30 10 48 43 l23 42 98 0 c98 0 122 8 120 40 0 8 -26 67 -57 130 -43 86 -62
116 -78 118 -11 2 -25 -3 -31 -10z m55 -163 l22 -45 -50 0 -50 0 22 45 c12 25
25 45 28 45 3 0 16 -20 28 -45z"/>
<path d="M2317 1223 c-4 -3 -7 -64 -7 -135 0 -107 3 -135 19 -166 36 -70 135
-102 214 -68 65 28 97 88 97 186 0 61 -14 84 -47 78 -15 -3 -19 -17 -24 -73
-8 -87 -14 -102 -50 -120 -43 -23 -77 -18 -110 14 -29 29 -29 30 -29 148 0 79
-4 123 -12 131 -13 13 -41 16 -51 5z"/>
<path d="M2573 1214 c-15 -39 38 -67 60 -32 8 12 7 21 -2 32 -17 21 -50 20
-58 0z"/>
<path d="M3156 1215 c-12 -32 -7 -340 6 -353 18 -18 113 -15 129 4 19 23 -1
48 -39 52 l-31 3 -3 152 -3 152 -26 3 c-17 2 -29 -3 -33 -13z"/>
<path d="M2867 1123 c-4 -3 -7 -64 -7 -135 0 -110 2 -130 16 -135 9 -3 24 -2
33 4 13 8 17 32 19 128 2 78 -1 122 -9 131 -12 15 -41 19 -52 7z"/>
<path d="M3585 1118 c-3 -8 -4 -70 -3 -139 l3 -124 30 0 30 0 0 135 0 135 -28
3 c-16 2 -29 -2 -32 -10z"/>
<path d="M3867 954 c-15 -16 -7 -53 14 -59 30 -10 58 19 43 43 -12 18 -45 28
-57 16z"/>
<path d="M1510 900 c-14 -27 4 -52 34 -48 31 4 30 62 -1 66 -14 2 -26 -4 -33
-18z"/>
<path d="M3350 905 c-18 -22 -8 -50 19 -50 32 0 49 28 32 49 -17 20 -35 20
-51 1z"/>
<path d="M2053 854 c-15 -39 38 -67 60 -32 8 12 7 21 -2 32 -17 21 -50 20 -58
0z"/>
</g>
</svg>
